<svg width="27" height="38" viewBox="0 0 27 38" fill="none" xmlns="http://www.w3.org/2000/svg">
<path d="M22.4097 7.14824H20.6574L22.7164 10.6098C23.4145 11.7833 23 13.2831 21.7915 13.9597L19.9489 14.9922L15.2517 22.8872H22.4097C23.805 22.8872 24.9368 21.7889 24.9368 20.4348V9.60062C24.9368 8.24576 23.805 7.14746 22.4097 7.14746" fill="#F04E49"/>
<path d="M9.37328 6.1957L11.0873 7.15603C11.14 7.15293 11.1927 7.14828 11.2454 7.14828H20.6574L17.1351 1.22659C16.437 0.053875 14.8915 -0.348397 13.6823 0.329032L4.01396 5.74614C2.80552 6.42357 2.39099 7.92337 3.08906 9.09686L3.90933 10.475L5.92127 7.09325C6.61934 5.92054 8.16483 5.51827 9.37328 6.1957Z" fill="#6E6CB2"/>
<path d="M11.0872 7.15619L19.0415 11.613C20.2499 12.2896 20.6644 13.7902 19.9664 14.9629L19.9488 14.9924L21.7914 13.9599C23.0007 13.2825 23.4144 11.7827 22.7163 10.61L20.6573 7.14844H11.2453C11.1918 7.14844 11.1399 7.15309 11.0872 7.15619Z" fill="#42419A"/>
<path d="M12.1242 19.3769C10.9405 20.0404 9.43654 19.6668 8.71851 18.5499V20.4349C8.71851 21.7897 9.85027 22.8873 11.2456 22.8873H15.2519L19.9491 14.9922L12.1234 19.3769H12.1242Z" fill="#F1656A"/>
<path d="M11.2454 22.8873C9.84925 22.8873 8.71828 21.789 8.71828 20.4349V9.60071C8.71828 8.29855 9.76618 7.23513 11.0872 7.15607L9.37322 6.19573C8.16478 5.5183 6.61848 5.92057 5.92121 7.09329L3.90927 10.475L0.339057 16.4758C-0.359012 17.6492 0.0555164 19.149 1.26396 19.8265L10.9323 25.2436C12.1407 25.921 13.687 25.5187 14.3843 24.346L15.2517 22.8881H11.2454V22.8873Z" fill="#ED2891"/>
<path d="M19.0418 11.6125L11.0875 7.15576C9.76561 7.2356 8.71851 8.29825 8.71851 9.6004V18.5496C9.43574 19.6665 10.9405 20.0401 12.1242 19.3766L19.9499 14.9919L19.9675 14.9625C20.6655 13.7898 20.251 12.2892 19.0426 11.6125" fill="white"/>
<path d="M8.14581 36.4872V37.0879C8.14581 37.4174 7.97329 37.5972 7.69374 37.5972C7.38863 37.5972 7.22729 37.4019 7.22729 37.0724C7.22729 36.7919 7.37665 36.5493 7.6538 36.5493C7.78399 36.5493 7.87904 36.6074 7.95252 36.6787V36.4989C7.95252 36.3609 7.89821 36.2508 7.69853 36.2508C7.53879 36.2508 7.45652 36.3183 7.45652 36.4097C7.45652 36.4152 7.45652 36.419 7.45892 36.433L7.27602 36.4562C7.27202 36.4423 7.26963 36.4291 7.26963 36.4121C7.26963 36.2206 7.45652 36.1113 7.69853 36.1113C7.95891 36.1113 8.14581 36.2547 8.14581 36.4872ZM7.95252 37.0724V36.8283C7.88303 36.7469 7.80077 36.6926 7.68735 36.6926C7.5316 36.6926 7.43496 36.826 7.43496 37.0724C7.43496 37.3336 7.51882 37.4538 7.69374 37.4538C7.86866 37.4538 7.95252 37.3321 7.95252 37.0724Z" fill="#42419A"/>
<path d="M7.69349 37.6054C7.39158 37.6054 7.21826 37.4108 7.21826 37.0721C7.21826 36.7055 7.43711 36.5412 7.65356 36.5412C7.76138 36.5412 7.85643 36.5799 7.94349 36.6597V36.4993C7.94349 36.3358 7.86521 36.2598 7.69749 36.2598C7.55372 36.2598 7.46426 36.3172 7.46426 36.4102C7.46426 36.4156 7.46426 36.4195 7.46666 36.4319L7.46826 36.4404L7.26938 36.466L7.26698 36.459C7.26219 36.4443 7.26059 36.4295 7.26059 36.4125C7.26059 36.228 7.43631 36.104 7.69749 36.104C7.95866 36.104 8.15355 36.2582 8.15355 36.4885V37.0891C8.15355 37.4178 7.98582 37.6069 7.69349 37.6069M7.65356 36.559C7.36443 36.559 7.23503 36.8179 7.23503 37.0736C7.23503 37.4069 7.39797 37.5906 7.69349 37.5906C7.98901 37.5906 8.13677 37.4077 8.13677 37.0891V36.4885C8.13677 36.2683 7.96026 36.1211 7.69749 36.1211C7.43471 36.1211 7.27737 36.2381 7.27737 36.4133C7.27737 36.4264 7.27896 36.4381 7.28136 36.4489L7.44829 36.428C7.44749 36.4202 7.44749 36.4164 7.44749 36.4117C7.44749 36.3086 7.54334 36.2451 7.69749 36.2451C7.874 36.2451 7.96026 36.3288 7.96026 36.5016V36.7016L7.94588 36.6876C7.85803 36.6016 7.76218 36.5605 7.65356 36.5605M7.69349 37.4651C7.51139 37.4651 7.42672 37.341 7.42672 37.0752C7.42672 36.8287 7.52177 36.6869 7.6871 36.6869C7.79173 36.6869 7.87799 36.7311 7.95866 36.8256L7.96026 36.8279V37.0752C7.96026 37.3372 7.8732 37.4651 7.69349 37.4651ZM7.6871 36.7039C7.53215 36.7039 7.4435 36.8396 7.4435 37.0752C7.4435 37.3302 7.52257 37.4488 7.69349 37.4488C7.86442 37.4488 7.94349 37.3302 7.94349 37.0752V36.8341C7.86681 36.745 7.78534 36.7039 7.6871 36.7039Z" fill="#42419A"/>
<path d="M8.88678 37.0123C8.88678 36.6597 9.0609 36.5264 9.26298 36.5264C9.4355 36.5264 9.53214 36.5961 9.56968 36.7527C9.59683 36.5977 9.70626 36.5264 9.85721 36.5264C10.0697 36.5264 10.2478 36.6698 10.2478 37.0123C10.2478 37.2488 10.1807 37.4286 10.1176 37.5704H9.9243C10.013 37.3534 10.0529 37.1984 10.0529 37.0147C10.0529 36.7318 9.94347 36.6698 9.83645 36.6698C9.72942 36.6698 9.65993 36.7318 9.65993 36.9V37.2371L9.47463 37.2565V36.9C9.47463 36.7062 9.39476 36.6698 9.29173 36.6698C9.15515 36.6698 9.08167 36.7705 9.08167 37.0108C9.08167 37.1984 9.11761 37.3534 9.20547 37.5704H9.01378C8.94829 37.4255 8.88599 37.2488 8.88599 37.0123" fill="#42419A"/>
<path d="M10.124 37.5782H9.9123L9.91709 37.5666C10.0097 37.3379 10.0449 37.1883 10.0449 37.0139C10.0449 36.7876 9.97699 36.6775 9.83722 36.6775C9.7238 36.6775 9.66949 36.7504 9.66949 36.9V37.2441L9.46742 37.2651V36.8992C9.46742 36.7039 9.38356 36.6768 9.2933 36.6768C9.15592 36.6768 9.09203 36.7822 9.09203 37.0093C9.09203 37.1937 9.12557 37.3449 9.21583 37.5658L9.22062 37.5774H9.01136L9.00896 37.5728C8.94507 37.4309 8.88037 37.2527 8.88037 37.0116C8.88037 36.5651 9.14953 36.5171 9.26535 36.5171C9.42908 36.5171 9.52732 36.5806 9.57125 36.7171C9.60719 36.5876 9.70783 36.5171 9.86038 36.5171C10.1104 36.5171 10.2597 36.7016 10.2597 37.0116C10.2597 37.2472 10.1934 37.427 10.1287 37.5728L10.1264 37.5774L10.124 37.5782ZM9.93786 37.5619H10.1128C10.1759 37.4193 10.2406 37.2426 10.2406 37.0124C10.2406 36.7132 10.0976 36.5341 9.85799 36.5341C9.74777 36.5341 9.61039 36.5721 9.57844 36.7543L9.57125 36.7946L9.56167 36.755C9.52493 36.6031 9.43308 36.5349 9.26295 36.5349C9.02973 36.5349 8.89555 36.7093 8.89555 37.0131C8.89555 37.2488 8.95864 37.4232 9.02094 37.5627H9.19426C9.108 37.348 9.07446 37.193 9.07446 37.0108C9.07446 36.776 9.14634 36.662 9.2933 36.662C9.38755 36.662 9.48499 36.6907 9.48499 36.9008V37.248L9.65272 37.2302V36.9008C9.65272 36.7426 9.71502 36.662 9.83802 36.662C9.98738 36.662 10.0633 36.7806 10.0633 37.0147C10.0633 37.1883 10.0297 37.3379 9.93945 37.5627" fill="#42419A"/>
<path d="M11.9276 37.0586C11.9276 37.3779 11.7495 37.5934 11.434 37.5934C11.1185 37.5934 10.9404 37.3841 10.9404 37.0609C10.9404 36.7702 11.0938 36.5609 11.3645 36.5299C11.3709 36.5121 11.3725 36.4889 11.3725 36.4563C11.3725 36.3338 11.1944 36.3207 11.1944 36.1385L11.3837 36.1191C11.3837 36.2587 11.5626 36.2835 11.5626 36.4462C11.5626 36.4811 11.5546 36.5098 11.5419 36.533C11.7903 36.5757 11.9284 36.7694 11.9284 37.0578M11.7208 37.0578C11.7208 36.7927 11.6201 36.6687 11.4372 36.6687C11.2543 36.6687 11.1489 36.7927 11.1489 37.0601C11.1489 37.3275 11.2495 37.4492 11.4348 37.4492C11.6201 37.4492 11.7208 37.3252 11.7208 37.0578Z" fill="#42419A"/>
<path d="M11.434 37.6018C11.1193 37.6018 10.9316 37.3995 10.9316 37.0608C10.9316 36.7609 11.0946 36.5555 11.3582 36.5229C11.3629 36.5082 11.3645 36.488 11.3645 36.457C11.3645 36.4059 11.331 36.3749 11.2911 36.3392C11.2415 36.2942 11.1856 36.2431 11.1856 36.14V36.1323L11.3917 36.1113V36.1206C11.3917 36.1842 11.4316 36.2229 11.4732 36.2648C11.5211 36.3121 11.5698 36.3601 11.5698 36.4485C11.5698 36.4779 11.5642 36.5051 11.553 36.5291C11.7966 36.5756 11.9356 36.7686 11.9356 37.06C11.9356 37.3949 11.7431 37.6026 11.4332 37.6026M11.2024 36.147C11.2048 36.2384 11.2543 36.2834 11.3022 36.3268C11.343 36.3632 11.3805 36.3981 11.3805 36.457C11.3805 36.4934 11.3781 36.5159 11.3717 36.533L11.3701 36.5376H11.3645C11.1074 36.5679 10.9476 36.7678 10.9476 37.0608C10.9476 37.3895 11.1289 37.5856 11.4332 37.5856C11.7375 37.5856 11.9188 37.384 11.9188 37.0593C11.9188 36.7725 11.7807 36.5841 11.5395 36.5423L11.5283 36.5407L11.5339 36.5307C11.5474 36.5058 11.5538 36.4779 11.5538 36.4477C11.5538 36.3663 11.5067 36.3206 11.462 36.2764C11.4212 36.2361 11.3789 36.195 11.3757 36.1299L11.2032 36.1478L11.2024 36.147ZM11.4332 37.4592C11.2375 37.4592 11.1385 37.3259 11.1385 37.0616C11.1385 36.7973 11.2383 36.6624 11.4348 36.6624C11.6313 36.6624 11.7272 36.7965 11.7272 37.06C11.7272 37.3236 11.6281 37.4592 11.4332 37.4592ZM11.4356 36.6787C11.2503 36.6787 11.1561 36.8074 11.1561 37.0616C11.1561 37.3158 11.2495 37.4429 11.4332 37.4429C11.6169 37.4429 11.7104 37.3143 11.7104 37.06C11.7104 36.8058 11.6177 36.6787 11.4348 36.6787" fill="#42419A"/>
<path d="M13.453 37.2257C13.453 37.4567 13.2622 37.5977 13.0162 37.5977C12.7238 37.5977 12.5833 37.421 12.5833 37.2435C12.5833 37.166 12.6064 37.0962 12.6424 37.0366L12.8061 37.0769C12.7893 37.1234 12.7789 37.1776 12.7789 37.2373C12.7789 37.3675 12.8668 37.4543 13.0162 37.4543C13.1799 37.4543 13.2494 37.352 13.2494 37.2218C13.2494 36.9505 12.9027 36.8715 12.9027 36.5498H13.096C13.096 36.7707 13.453 36.9079 13.453 37.2257Z" fill="#42419A"/>
<path d="M13.0154 37.6055C12.803 37.6055 12.5737 37.4923 12.5737 37.2428C12.5737 37.1691 12.5937 37.0986 12.6336 37.0312L12.6368 37.0257L12.8157 37.0699L12.8125 37.0784C12.795 37.1273 12.7854 37.1808 12.7854 37.2366C12.7854 37.3652 12.8732 37.4451 13.0146 37.4451C13.156 37.4451 13.2399 37.3629 13.2399 37.2211C13.2399 37.0947 13.1624 37.0102 13.0793 36.9211C12.9875 36.8219 12.8924 36.7196 12.8924 36.5491V36.5405H13.1025V36.5491C13.1025 36.6459 13.1768 36.7297 13.255 36.818C13.3509 36.9265 13.4603 37.049 13.4603 37.2249C13.4603 37.4489 13.2774 37.6047 13.0146 37.6047M12.6448 37.0443C12.6089 37.1071 12.5905 37.1738 12.5905 37.242C12.5905 37.4799 12.8109 37.5885 13.0146 37.5885C13.267 37.5885 13.4435 37.4389 13.4435 37.2249C13.4435 37.0552 13.3365 36.935 13.243 36.8289C13.1648 36.7405 13.0905 36.6568 13.0865 36.5576H12.91C12.9132 36.7172 13.0042 36.8157 13.0921 36.911C13.1768 37.0025 13.2566 37.0885 13.2566 37.2218C13.2566 37.373 13.1664 37.4629 13.0146 37.4629C12.8629 37.4629 12.7686 37.3745 12.7686 37.2381C12.7686 37.1839 12.7766 37.1319 12.7934 37.0831L12.6448 37.0459V37.0443Z" fill="#42419A"/>
<path d="M14.5959 36.5264C14.8795 36.5264 15.0432 36.7163 15.0432 37.0069C15.0432 37.2449 14.9761 37.4293 14.9106 37.5704H14.7197C14.7996 37.3751 14.8475 37.1968 14.8475 37.0069C14.8475 36.7744 14.7469 36.6698 14.5951 36.6698C14.4434 36.6698 14.3387 36.7744 14.3387 37.0069C14.3387 37.1968 14.3875 37.3751 14.4673 37.5704H14.2757C14.2102 37.4293 14.1431 37.2449 14.1431 37.0069C14.1431 36.7263 14.3108 36.5264 14.5951 36.5264" fill="#42419A"/>
<path d="M14.9161 37.5781H14.7068L14.7116 37.5665C14.7995 37.3502 14.8394 37.1774 14.8394 37.0061C14.8394 36.7937 14.7531 36.6774 14.5958 36.6774C14.4385 36.6774 14.3482 36.7945 14.3482 37.0061C14.3482 37.1774 14.3873 37.3502 14.476 37.5665L14.4808 37.5781H14.2715L14.2691 37.5735C14.2068 37.4394 14.1357 37.2533 14.1357 37.0069C14.1357 36.71 14.3162 36.5186 14.5958 36.5186C14.8753 36.5186 15.0519 36.7061 15.0519 37.0069C15.0519 37.2533 14.9808 37.4394 14.9185 37.5735L14.9161 37.5781ZM14.7316 37.5618H14.9049C14.9656 37.4293 15.0343 37.2471 15.0343 37.0061C15.0343 36.7147 14.8658 36.5341 14.595 36.5341C14.3242 36.5341 14.1517 36.7193 14.1517 37.0061C14.1517 37.2464 14.2204 37.4285 14.2811 37.5618H14.4544C14.369 37.3487 14.3306 37.1774 14.3306 37.0061C14.3306 36.7836 14.4249 36.6604 14.5958 36.6604C14.7667 36.6604 14.8562 36.7829 14.8562 37.0061C14.8562 37.1766 14.8178 37.3487 14.7316 37.5618Z" fill="#42419A"/>
<path d="M17.632 36.9736C17.632 37.1829 17.5961 37.3224 17.5394 37.4386L17.3709 37.3983C17.4148 37.2627 17.4364 37.1464 17.4364 36.9759C17.4364 36.7318 17.3309 36.6698 17.2287 36.6698C17.1265 36.6698 17.0522 36.7318 17.0522 36.8767V37.241L16.8669 37.2565V36.8767C16.8669 36.7318 16.791 36.6698 16.688 36.6698C16.5849 36.6698 16.5075 36.7318 16.5075 36.8767V37.2371L16.3222 37.2565V36.8767C16.3222 36.7318 16.2487 36.6698 16.1432 36.6698C16.0107 36.6698 15.9372 36.7845 15.9372 36.9992C15.9372 37.4154 16.2862 37.52 16.5442 37.5999C16.7119 37.6526 16.9835 37.7355 17.1057 37.8944L16.9835 37.989C16.815 37.8169 16.656 37.7681 16.4835 37.7681C16.3278 37.7681 16.204 37.813 16.0817 37.8781L16.025 37.7177C16.1321 37.6735 16.2223 37.6557 16.3613 37.6557C16.0378 37.5913 15.7439 37.4038 15.7439 36.993C15.7439 36.6597 15.9228 36.5264 16.1217 36.5264C16.275 36.5264 16.3781 36.5961 16.4156 36.7434C16.4428 36.5984 16.5394 36.5264 16.6824 36.5264C16.8397 36.5264 16.922 36.5961 16.9595 36.7434C16.9867 36.5984 17.0937 36.5264 17.2407 36.5264C17.4443 36.5264 17.6296 36.6698 17.6296 36.9736" fill="#42419A"/>
<path d="M16.9842 37.9998L16.9786 37.9944C16.8292 37.8417 16.6814 37.7758 16.485 37.7758C16.3484 37.7758 16.2294 37.8084 16.0872 37.8851L16.0784 37.8898L16.0161 37.7123L16.0233 37.7092C16.1144 37.6712 16.1934 37.6534 16.2957 37.6479C16.0616 37.5883 15.7366 37.4263 15.7366 36.9922C15.7366 36.6946 15.8811 36.5171 16.1231 36.5171C16.2741 36.5171 16.3723 36.5814 16.4163 36.7093C16.4514 36.5853 16.5449 36.5171 16.6838 36.5171C16.8308 36.5171 16.9171 36.5768 16.9602 36.7093C16.9961 36.5868 17.0968 36.5171 17.2421 36.5171C17.4258 36.5171 17.6399 36.6365 17.6399 36.9728C17.6399 37.1651 17.6111 37.3092 17.5464 37.441L17.5432 37.4472L17.3595 37.403L17.3619 37.3945C17.4083 37.2511 17.4266 37.1341 17.4266 36.9744C17.4266 36.7798 17.3571 36.6768 17.227 36.6768C17.1199 36.6768 17.0592 36.7496 17.0592 36.876V37.248H17.0512L16.8572 37.2651V36.8767C16.8572 36.7488 16.7965 36.6775 16.687 36.6775C16.5776 36.6775 16.5145 36.7481 16.5145 36.8767V37.2441L16.3124 37.2651V36.876C16.3124 36.7457 16.2533 36.6768 16.1423 36.6768C16.0153 36.6768 15.945 36.7907 15.945 36.9976C15.945 37.4053 16.2901 37.5115 16.5417 37.589L16.5513 37.5921C16.7254 37.6464 16.9897 37.7286 17.1119 37.8882L17.1167 37.8944L16.9826 37.9991L16.9842 37.9998ZM16.485 37.7596C16.6822 37.7596 16.8364 37.827 16.9857 37.9774L17.0952 37.8921C16.9738 37.741 16.7182 37.6611 16.5481 37.6084L16.5385 37.6053C16.2821 37.5263 15.9299 37.4185 15.9299 36.9984C15.9299 36.7806 16.0057 36.6605 16.1447 36.6605C16.2653 36.6605 16.3316 36.7372 16.3316 36.876V37.2465L16.4993 37.2286V36.876C16.4993 36.7388 16.568 36.6605 16.6886 36.6605C16.8092 36.6605 16.8755 36.7388 16.8755 36.876V37.2465L17.0433 37.2325V36.876C17.0433 36.7411 17.1127 36.6605 17.2286 36.6605C17.3276 36.6605 17.445 36.7147 17.445 36.9752C17.445 37.1333 17.4274 37.2503 17.3819 37.3914L17.5345 37.4278C17.596 37.2999 17.6231 37.1589 17.6231 36.9728C17.6231 36.6489 17.4178 36.5334 17.2429 36.5334C17.092 36.5334 16.9953 36.6078 16.9698 36.7434L16.9626 36.7806L16.953 36.7434C16.9155 36.5961 16.8348 36.5326 16.6838 36.5326C16.5329 36.5326 16.4514 36.6055 16.4251 36.7426L16.4179 36.7798L16.4083 36.7426C16.3723 36.6031 16.2757 36.5318 16.1223 36.5318C15.8907 36.5318 15.7525 36.7031 15.7525 36.9907C15.7525 37.4549 16.1351 37.5999 16.3636 37.6448L16.4458 37.6611H16.362C16.2294 37.6611 16.1407 37.6774 16.0361 37.7193L16.0872 37.8634C16.2262 37.7898 16.3492 37.7565 16.4842 37.7565" fill="#42419A"/>
<path d="M0.0476074 27.7176L1.26324 27.5835V31.5225C1.26324 31.8674 1.31675 32.1255 1.42458 32.2953C1.5324 32.4658 1.70652 32.5503 1.94773 32.5503C2.16817 32.5503 2.3367 32.4728 2.45171 32.317C2.56752 32.1612 2.62503 31.9287 2.62503 31.6171C2.62503 31.3714 2.59548 31.1621 2.53638 30.9892C2.47727 30.8164 2.38861 30.6195 2.2712 30.3986C2.15859 30.1932 2.07472 30.0111 2.02121 29.8537C1.9677 29.6956 1.94054 29.5088 1.94054 29.2933H3.14898C3.15937 29.4538 3.18972 29.6003 3.24163 29.7328C3.29275 29.8654 3.36703 30.0219 3.46447 30.2018C3.59786 30.4521 3.69929 30.6777 3.76878 30.8776C3.83827 31.0776 3.87261 31.3233 3.87261 31.614C3.87261 31.969 3.79673 32.2821 3.64578 32.5526C3.49402 32.8231 3.27358 33.0347 2.98365 33.1874C2.69372 33.3401 2.34628 33.4161 1.94054 33.4161C1.32474 33.4161 0.855099 33.2533 0.532422 32.9285C0.208946 32.6038 0.0476074 32.1263 0.0476074 31.4962V27.7168V27.7176Z" fill="#ED2891"/>
<path d="M7.02835 29.5853C7.34145 29.8697 7.49799 30.2612 7.49799 30.7595V33.198C7.49799 33.532 7.42771 33.8281 7.28634 34.0878C7.14496 34.3467 6.9373 34.5513 6.66255 34.7009C6.38779 34.8505 6.05872 34.9249 5.67375 34.9249C5.10427 34.9249 4.66019 34.7745 4.34231 34.4746C4.02442 34.1746 3.86548 33.7793 3.86548 33.2887C3.86548 32.9313 3.94775 32.5996 4.11148 32.2919L5.18893 32.5446C5.11226 32.788 5.07312 33.036 5.07312 33.2887C5.07312 33.5274 5.12344 33.7142 5.22328 33.8491C5.32312 33.9831 5.47327 34.0506 5.67375 34.0506C6.07869 34.0506 6.28156 33.787 6.28156 33.2592V30.7123C6.28156 30.2588 6.09946 30.0325 5.73525 30.0325C5.55075 30.0325 5.41097 30.086 5.31593 30.193C5.22088 30.2999 5.17376 30.4356 5.17376 30.5999C5.17376 30.789 5.19932 30.9735 5.25043 31.1525L4.14183 31.3393C4.02921 31.0843 3.97251 30.8425 3.97251 30.6123C3.97251 30.3224 4.04519 30.0689 4.19215 29.8511C4.33831 29.6341 4.54518 29.4644 4.81194 29.3419C5.07871 29.2194 5.38941 29.1582 5.74324 29.1582C6.28715 29.1582 6.71526 29.3 7.02835 29.5845" fill="#ED2891"/>
<path d="M14.6825 29.6196C14.9669 29.9265 15.1098 30.3691 15.1098 30.9481C15.1098 31.3426 15.0779 31.6906 15.014 31.9921C14.9501 32.2944 14.8487 32.5796 14.7097 32.8486L13.6474 32.5277C13.7241 32.2936 13.7808 32.0588 13.8167 31.8216C13.8527 31.5852 13.8702 31.3147 13.8702 31.0108C13.8702 30.6675 13.8255 30.4187 13.7353 30.2637C13.645 30.1094 13.5236 30.0319 13.3695 30.0319C13.2465 30.0319 13.1466 30.0769 13.0691 30.166C12.9925 30.2559 12.9533 30.39 12.9533 30.569V31.8983L11.8295 32.0177V30.576C11.8295 30.2125 11.6914 30.0311 11.4142 30.0311C11.2808 30.0311 11.1754 30.0761 11.0987 30.1652C11.0221 30.2551 10.9829 30.3915 10.9829 30.576V31.8906L9.85116 32.0177V30.5683C9.85116 30.2102 9.71777 30.0304 9.451 30.0304C9.27689 30.0304 9.14829 30.1172 9.06603 30.2916C8.98376 30.466 8.94303 30.7473 8.94303 31.1356C8.94303 31.524 9.03248 31.8503 9.21219 32.0991C9.3919 32.3479 9.61634 32.5401 9.8855 32.6742C10.1547 32.8083 10.4901 32.9354 10.8903 33.0548C11.4134 33.2043 11.8559 33.371 12.2177 33.5555C12.5795 33.7399 12.8838 33.9841 13.1298 34.2871L12.3527 34.9219C12.1267 34.6584 11.8567 34.4499 11.5404 34.298C11.2249 34.1461 10.8615 34.0701 10.451 34.0701C10.1587 34.0701 9.89429 34.1097 9.65867 34.1895C9.42225 34.2693 9.17864 34.384 8.92785 34.5329L8.64271 33.6965C8.97098 33.5423 9.34797 33.4648 9.77368 33.4648C9.16826 33.3152 8.67147 33.0424 8.28409 32.6463C7.89672 32.2502 7.70264 31.7224 7.70264 31.0635C7.70264 30.4047 7.84001 29.9412 8.11477 29.6265C8.38872 29.3126 8.76731 29.1553 9.24973 29.1553C9.86553 29.1553 10.2505 29.4312 10.4047 29.9846C10.4606 29.7056 10.5748 29.4979 10.7473 29.3607C10.919 29.2235 11.1411 29.1553 11.4134 29.1553C11.6858 29.1553 11.8934 29.225 12.0676 29.3645C12.2417 29.5041 12.3551 29.711 12.4062 29.9846C12.4733 29.7157 12.6027 29.5103 12.7952 29.3684C12.9877 29.2266 13.2377 29.1553 13.546 29.1553C14.018 29.1553 14.3966 29.3087 14.6809 29.6157" fill="#ED2891"/>
<path d="M20.6391 32.5161C20.8108 32.7176 20.8971 32.968 20.8971 33.2664C20.8971 33.6098 20.8044 33.9058 20.6199 34.1554C20.4354 34.4042 20.1751 34.5949 19.8388 34.7267C19.5025 34.8584 19.1112 34.9243 18.6647 34.9243C18.2182 34.9243 17.8604 34.8654 17.5297 34.7491C17.1991 34.6321 16.9411 34.4616 16.7566 34.2376C16.5721 34.0136 16.4794 33.7446 16.4794 33.4307C16.4794 33.3563 16.4874 33.2811 16.5026 33.2067L17.7262 33.3408V33.3858C17.7262 33.6098 17.8093 33.7779 17.9762 33.8896C18.1431 34.0019 18.3724 34.0578 18.6647 34.0578C18.9826 34.0578 19.2238 33.9841 19.3883 33.8376C19.5521 33.6904 19.6343 33.4803 19.6343 33.2067C19.6343 32.9827 19.5768 32.8083 19.461 32.6843C19.3452 32.5603 19.1823 32.4975 18.9722 32.4975H18.8564L18.9794 31.6984H19.1104C19.3308 31.6984 19.4977 31.6201 19.6104 31.4628C19.723 31.3054 19.7797 31.0775 19.7797 30.7783C19.7797 30.5001 19.7286 30.2939 19.6255 30.1598C19.5225 30.0257 19.3843 29.9591 19.2102 29.9591C19.0049 29.9591 18.8125 30.0226 18.6327 30.1497C18.7198 30.3838 18.7637 30.6435 18.7637 30.9279C18.7637 31.2736 18.6966 31.5852 18.5641 31.8627C18.4307 32.1402 18.2318 32.3588 17.9674 32.5192C17.7031 32.6796 17.3836 32.7595 17.009 32.7595C16.6344 32.7595 16.3205 32.6843 16.0505 32.5347C15.7814 32.3851 15.5745 32.1743 15.4307 31.9022C15.287 31.6302 15.2151 31.3147 15.2151 30.9551C15.2151 30.6156 15.287 30.3102 15.4307 30.0381C15.5745 29.7661 15.7822 29.5514 16.0537 29.3948C16.3253 29.2375 16.6464 29.1592 17.0154 29.1592C17.5026 29.1592 17.9003 29.2964 18.2086 29.57C18.5417 29.2964 18.945 29.1592 19.4171 29.1592C19.7142 29.1592 19.9826 29.2251 20.2214 29.3576C20.4602 29.4901 20.6447 29.6723 20.7757 29.904C20.9067 30.1366 20.9722 30.397 20.9722 30.6861C20.9722 31.0806 20.8763 31.3922 20.6838 31.6224C20.4913 31.8518 20.231 32.0115 19.9027 32.1014C20.2206 32.1758 20.4658 32.3146 20.6375 32.5161M17.6168 30.9628C17.6168 30.2931 17.4163 29.9583 17.0162 29.9583C16.8213 29.9583 16.6727 30.0443 16.5697 30.2156C16.4667 30.3869 16.4155 30.6334 16.4155 30.9558C16.4155 31.6255 16.6128 31.9604 17.0082 31.9604C17.4035 31.9604 17.616 31.6278 17.616 30.9636" fill="#42419A"/>
<path d="M21.6742 29.6793C22.0176 29.3328 22.4872 29.1592 23.0823 29.1592C23.6773 29.1592 24.1454 29.3312 24.4872 29.6754C24.8283 30.0195 24.9992 30.5063 24.9992 31.1349C24.9992 31.8131 24.8474 32.5215 24.5455 33.2602H23.3754C23.6318 32.4665 23.7604 31.7604 23.7604 31.1419C23.7604 30.7528 23.7037 30.4699 23.5911 30.2924C23.4784 30.1149 23.3091 30.0265 23.0831 30.0265C22.8571 30.0265 22.6805 30.1149 22.5671 30.2924C22.4545 30.4699 22.3978 30.7528 22.3978 31.1419C22.3978 31.486 22.4313 31.827 22.4976 32.1634C22.5639 32.5006 22.659 32.8657 22.782 33.2602H21.6199C21.3124 32.5316 21.1582 31.8239 21.1582 31.1349C21.1582 30.5117 21.3299 30.0265 21.6742 29.6793Z" fill="#42419A"/>
<path d="M25.4849 29.8655C25.4849 28.9315 26.9161 28.9315 26.9161 29.8655C26.9161 30.7995 25.4849 30.8018 25.4849 29.8655ZM26.7476 29.8655C26.7476 29.1214 25.6526 29.1214 25.6526 29.8655C25.6526 30.6096 26.7476 30.6057 26.7476 29.8655ZM26.5208 30.1732V30.1957H26.3754L26.2197 29.9717H26.0999V30.1957H25.9609V29.5307H26.2532C26.3962 29.5307 26.5008 29.6105 26.5008 29.757C26.5008 29.8485 26.4505 29.9283 26.3555 29.9531L26.5192 30.1732H26.5208ZM26.1007 29.8593H26.2412C26.3107 29.8593 26.3634 29.8182 26.3634 29.7555C26.3634 29.6966 26.3155 29.6516 26.2412 29.6516H26.1007V29.8593Z" fill="#42419A"/>
</svg>
